<?xml version="1.0" encoding="utf-8"?>
<!-- Generator: Adobe Illustrator 19.2.1, SVG Export Plug-In . SVG Version: 6.00 Build 0)  -->
<svg version="1.1" xmlns="http://www.w3.org/2000/svg" xmlns:xlink="http://www.w3.org/1999/xlink" x="0px" y="0px"
	 viewBox="0 0 1494.8 618.2" style="enable-background:new 0 0 1494.8 618.2;" xml:space="preserve">
<style type="text/css">
	.st0{fill-rule:evenodd;clip-rule:evenodd;fill:#43525A;}
	.st1{fill:#43525A;}
	.st2{fill:#3A88FF;}
	.st3{fill:#545454;}
	.st4{fill:#191C00;}
	.st5{fill:#FFFFFF;}
</style>
<g id="FreeVector.com_BG">
</g>
<g id="FreeVector.com_License">
</g>
<g id="Vector_Graphics">
	<path class="st0" d="M-86.5,160.9c1.9,0,3.4-1.6,3.4-3.5c0-1.9-1.5-3.4-3.4-3.5v1.4c1.1,0,2.1,0.9,2.1,2.1c0,1.1-0.9,2.1-2.1,2.1
		V160.9z M-187,100.3l4.6,0.3c4.4,0.3,8.6,1.7,12.6,4.2c3.2,2.1,7.1,5.5,11.6,10.2l27.1,28.8c4.6,4.8,8.4,8.2,11.6,10.2
		c3.9,2.5,8.1,3.9,12.6,4.2l17.4,1c0.6,1,1.7,1.7,3,1.7h0.1v-1.4h0c-1.1,0-2.1-0.9-2.1-2.1c0-1.1,0.9-2.1,2.1-2.1h0V154h-0.1
		c-1.5,0-2.8,1-3.3,2.4l-4.6-0.3c-4.5-0.3-8.7-1.7-12.6-4.2c-3.2-2.1-7-5.5-11.6-10.2l-27.1-28.8c-4.5-4.8-8.3-8.2-11.6-10.2
		c-3.9-2.5-8.1-3.9-12.6-4.2l-17.2-1c-0.7-2.2-2.7-3.8-5.1-3.8v2c1.9,0,3.4,1.5,3.4,3.4c0,1.9-1.5,3.4-3.4,3.4v1.9
		C-189.7,104.4-187.6,102.6-187,100.3z M-192.2,93.7c-2.9,0-5.3,2.4-5.3,5.3c0,2.9,2.4,5.3,5.3,5.3v-1.9c-1.9,0-3.4-1.5-3.4-3.4
		c0-1.9,1.5-3.4,3.4-3.4V93.7z"/>
	<path class="st0" d="M-194.1,159.5c-1.1,0-2.1-0.9-2.1-2.1c0-1.1,0.9-2.1,2.1-2.1V154c-1.9,0-3.4,1.6-3.4,3.5
		c0,1.9,1.5,3.4,3.4,3.5V159.5z M-88.4,104.4v-1.9c-1.9,0-3.4-1.5-3.4-3.4c0-1.9,1.5-3.4,3.4-3.4v-2c-2.4,0-4.4,1.6-5.1,3.8l-17.2,1
		c-4.4,0.3-8.6,1.7-12.6,4.2c-3.2,2.1-7.1,5.5-11.6,10.2l-27.1,28.8c-4.6,4.8-8.4,8.2-11.6,10.2c-3.9,2.5-8.1,3.9-12.6,4.2l-4.6,0.3
		c-0.4-1.4-1.8-2.4-3.3-2.4h-0.1v1.4h0c1.1,0,2.1,0.9,2.1,2.1c0,1.1-0.9,2.1-2.1,2.1h0v1.4h0.1c1.3,0,2.4-0.7,3-1.7l17.4-1
		c4.5-0.3,8.7-1.7,12.6-4.2c3.2-2,7-5.5,11.6-10.2l27.1-28.8c4.5-4.8,8.3-8.2,11.6-10.2c3.9-2.5,8.1-3.9,12.6-4.2l4.6-0.3
		C-93,102.6-90.9,104.4-88.4,104.4z M-88.4,95.8c1.9,0,3.4,1.5,3.4,3.4c0,1.9-1.5,3.4-3.4,3.4v1.9c2.9,0,5.3-2.4,5.3-5.3
		c0-2.9-2.4-5.3-5.3-5.3V95.8z"/>
	<path class="st1" d="M-141.3,90.9c6.7,0,13.1,1.8,18.5,5.1c2.1-1,4.3-1.8,6.6-2.3c-7-5.2-15.7-8.3-25.1-8.3c-9.2,0-17.7,3-24.7,8
		c2.4,0.4,4.7,1.2,7,2.2C-153.7,92.6-147.7,90.9-141.3,90.9z"/>
	<path class="st1" d="M-173.3,144.7c-2.8-5.2-4.4-11.1-4.4-17.4c0-6.5,1.7-12.6,4.7-17.8c-1.7-1.1-3.4-1.8-5.1-2.4
		c-3.3,6-5.2,12.9-5.2,20.2c0,7.5,2,14.5,5.4,20.6c0.4-0.2,0.9-0.5,1.3-0.8C-175.5,146.5-174.5,145.7-173.3,144.7z"/>
	<path class="st1" d="M-122.8,158.7c-5.4,3.2-11.7,5.1-18.5,5.1c-6.3,0-12.3-1.6-17.5-4.5c-2,1.2-4,2.1-6.1,2.9
		c6.7,4.6,14.8,7.3,23.6,7.3c9,0,17.4-2.9,24.2-7.7C-119,160.9-120.9,159.9-122.8,158.7C-122.7,158.7-122.7,158.7-122.8,158.7z"/>
	<path class="st1" d="M-109,110.4c2.7,5.1,4.2,10.8,4.2,16.9c0,5.8-1.4,11.3-3.8,16.2c1.7,1.5,3.2,2.7,4.5,3.5
		c3.2-5.9,4.9-12.6,4.9-19.8c0-7.1-1.8-13.8-4.9-19.7c-1.2,0.5-2.4,1.1-3.6,1.9C-108.1,109.8-108.6,110.1-109,110.4z"/>
	<text transform="matrix(1 0 0 1 -266.4324 280.9763)" class="st2" style="font-family:'Geometos'; font-size:74.9615px;">ALTE</text>
	<path class="st2" d="M376.2,82.8v414.4h-60.3V160.8h-0.6L91.3,497.2H17.1L302.1,82.8H376.2z"/>
	<path class="st2" d="M407.2,82.2h61.4v360.2H613v54.8H407.2V82.2z"/>
	<polygon class="st2" points="776.7,82.2 636.8,82.2 636.8,82.2 495,82.2 557.1,137.6 636.8,137.6 636.8,144.2 636.8,497.2 
		636.8,497.2 636.8,497.2 697.1,497.2 697.1,144.2 697.1,137.6 697.1,137.5 776.7,137.5 	"/>
	<path class="st3" d="M799.4,83.3h222.4v55.9H859.7v121.7h95.2v55.3h-95.2v125.6h162.1v55.3H799.4V83.3z"/>
	<path class="st4" d="M-346.7,784.2c14.5-149.1,80.2-232,207.3-278.9C-139.4,505.3-295.3,593.1-346.7,784.2z"/>
	<path class="st4" d="M-229,702.1c-2.5-28.9-11.8-58.1-27.3-85.4c-2.9,3.8-5.9,7.7-8.8,11.7C-251.8,649.9-238.9,674.8-229,702.1z"/>
	<path class="st4" d="M-285,599.4c3-3.9,6-7.8,9.2-11.5c-18.5-23.6-42.2-44.8-70.6-61.9c-1-0.6-2-1.2-3.1-1.8
		C-343.1,528.1-306,566.2-285,599.4z"/>
	<g>
		<path class="st3" d="M1022.2,618.2c31.7-327,175.9-508.8,454.7-611.6C1476.9,6.5,1134.8,199.1,1022.2,618.2z"/>
		<path class="st3" d="M1280.2,438.2c-5.4-63.5-25.9-127.5-60-187.2c-6.4,8.3-12.9,16.9-19.3,25.8
			C1230.3,323.7,1258.5,378.1,1280.2,438.2z"/>
		<path class="st3" d="M1157.4,212.9c6.5-8.6,13.2-17,20.2-25.2c-40.6-51.8-92.6-98.3-154.8-135.8c-2.2-1.3-4.4-2.7-6.7-4
			C1030,56.5,1111.3,140,1157.4,212.9z"/>
	</g>
	<path class="st5" d="M376.2,735.7v414.4h-60.3V813.7h-0.6L91.3,1150.1H17.1l284.9-414.4H376.2z"/>
	<path class="st5" d="M407.2,735.1h61.4v360.2H613v54.8H407.2V735.1z"/>
	<polygon class="st5" points="776.7,735.1 636.8,735.1 636.8,735.1 495,735.1 557.1,790.4 636.8,790.4 636.8,797.1 636.8,1150.1 
		636.8,1150.1 636.8,1150.1 697.1,1150.1 697.1,797.1 697.1,790.4 697.1,790.4 776.7,790.4 	"/>
	<path class="st5" d="M799.4,736.2h222.4v55.9H859.7v121.7h95.2v55.3h-95.2v125.6h162.1v55.3H799.4V736.2z"/>
	<g>
		<path class="st5" d="M1022.2,1271.1c31.7-327,175.9-508.8,454.7-611.6C1476.9,659.4,1134.8,852,1022.2,1271.1z"/>
		<path class="st5" d="M1280.2,1091.1c-5.4-63.5-25.9-127.5-60-187.2c-6.4,8.3-12.9,16.9-19.3,25.8
			C1230.3,976.6,1258.5,1031,1280.2,1091.1z"/>
		<path class="st5" d="M1157.4,865.8c6.5-8.6,13.2-17,20.2-25.2c-40.6-51.8-92.6-98.3-154.8-135.8c-2.2-1.3-4.4-2.7-6.7-4
			C1030,709.4,1111.3,792.9,1157.4,865.8z"/>
	</g>
</g>
</svg>
